<?xml version="1.0" encoding="utf-8"?>
<!-- Generator: Adobe Illustrator 27.1.1, SVG Export Plug-In . SVG Version: 6.00 Build 0)  -->
<svg version="1.1" id="Layer_1" xmlns="http://www.w3.org/2000/svg" xmlns:xlink="http://www.w3.org/1999/xlink" x="0px" y="0px"
	 viewBox="0 0 345.5 144.5" style="enable-background:new 0 0 345.5 144.5;" xml:space="preserve">
<style type="text/css">
	.st0{fill:#050505;}
</style>
<g>
	<g transform="translate(210.37735, 229.541733)">
	</g>
</g>
<path class="st0" d="M179,15.9c-1.1,0-2.1-0.9-2.1-2.1V5.2c0-1.1,0.9-2.1,2.1-2.1c1.1,0,2.1,0.9,2.1,2.1v8.7
	C181,15,180.1,15.9,179,15.9"/>
<path class="st0" d="M167.9,15.9c-1.1,0-2.1-0.9-2.1-2.1V5.2c0-1.1,0.9-2.1,2.1-2.1S170,4,170,5.2v8.7C170,15,169.1,15.9,167.9,15.9
	"/>
<g>
	<path class="st0" d="M131.3,33c-1,0-1.8,0.8-1.8,1.8v34.1c0,1,0.8,1.8,1.8,1.8c1,0,1.8-0.8,1.8-1.8V34.8
		C133.1,33.8,132.3,33,131.3,33z"/>
	<path class="st0" d="M119.3,35.6c-1,0-1.8,0.8-1.8,1.8v28.8c0,1,0.8,1.8,1.8,1.8c1,0,1.8-0.8,1.8-1.8V37.4
		C121.1,36.4,120.3,35.6,119.3,35.6z"/>
	<path class="st0" d="M107.3,43.5c-1,0-1.8,0.8-1.8,1.8v13.1c0,1,0.8,1.8,1.8,1.8c1,0,1.8-0.8,1.8-1.8V45.2
		C109,44.3,108.2,43.5,107.3,43.5z"/>
	<path class="st0" d="M215.6,33c-1,0-1.8,0.8-1.8,1.8v34.1c0,1,0.8,1.8,1.8,1.8c1,0,1.8-0.8,1.8-1.8V34.8
		C217.3,33.8,216.6,33,215.6,33z"/>
	<path class="st0" d="M227.6,35.6c-1,0-1.8,0.8-1.8,1.8v28.8c0,1,0.8,1.8,1.8,1.8c1,0,1.8-0.8,1.8-1.8V37.4
		C229.4,36.4,228.6,35.6,227.6,35.6z"/>
	<path class="st0" d="M239.6,43.5c-1,0-1.8,0.8-1.8,1.8v13.1c0,1,0.8,1.8,1.8,1.8c1,0,1.8-0.8,1.8-1.8V45.2
		C241.4,44.3,240.6,43.5,239.6,43.5z"/>
	<path class="st0" d="M204.3,44.1c-1.1,0-2.1,0.9-2.1,2.1v22.3c0,7.7-3,14.9-8.4,20.3c-5.4,5.4-12.7,8.4-20.4,8.4s-14.9-3-20.4-8.4
		c-5.4-5.4-8.4-12.6-8.4-20.3V46.1c0-1.1-0.9-2.1-2.1-2.1s-2.1,0.9-2.1,2.1v22.3c0,8.8,3.4,17,9.6,23.2c6.2,6.2,14.5,9.6,23.3,9.6
		s17.1-3.4,23.3-9.6c6.2-6.2,9.6-14.5,9.6-23.2V46.1C206.4,45,205.5,44.1,204.3,44.1z"/>
	<path class="st0" d="M167.3,89.1c0.1,0,0.2,0.1,0.4,0.1c1.9,0.5,3.8,0.8,5.8,0.8c2,0,4-0.3,5.8-0.8c0.1,0,0.3-0.1,0.4-0.1
		c8.9-2.7,15.4-10.9,15.4-20.6V23.8c0-11.9-9.7-21.5-21.6-21.5c-11.9,0-21.6,9.7-21.6,21.5v44.6C151.9,78.2,158.4,86.4,167.3,89.1z
		 M173.4,6.4c8.9,0,16.3,6.7,17.3,15.3h-34.6C157.2,13.2,164.5,6.4,173.4,6.4z M156,59.2h8.2c1.1,0,2.1-0.9,2.1-2.1
		c0-1.1-0.9-2.1-2.1-2.1H156v-6.8h8.2c1.1,0,2.1-0.9,2.1-2.1c0-1.1-0.9-2.1-2.1-2.1H156v-6.8h8.2c1.1,0,2.1-0.9,2.1-2.1
		c0-1.1-0.9-2.1-2.1-2.1H156v-7.2h34.9v7.2h-8.2c-1.1,0-2.1,0.9-2.1,2.1c0,1.1,0.9,2.1,2.1,2.1h8.2v6.8h-8.2c-1.1,0-2.1,0.9-2.1,2.1
		c0,1.1,0.9,2.1,2.1,2.1h8.2v6.8h-8.2c-1.1,0-2.1,0.9-2.1,2.1c0,1.1,0.9,2.1,2.1,2.1h8.2v7.2H156V59.2z M190.8,70.5
		c-0.7,6-4.5,11.1-9.7,13.6v-5.2c0-1.1-0.9-2.1-2.1-2.1c-1.1,0-2.1,0.9-2.1,2.1v6.6c-1.1,0.2-2.3,0.3-3.4,0.3s-2.3-0.1-3.4-0.3v-6.6
		c0-1.1-0.9-2.1-2.1-2.1s-2.1,0.9-2.1,2.1v5.2c-5.2-2.5-9-7.6-9.7-13.6H190.8z"/>
</g>
<g>
	<g transform="translate(58.866373, 229.541733)">
		<g>
			<path d="M-45.3-109.8H-53c-1.1,0-2,0.8-2,1.8v18.4c0,1,0.9,1.8,2,1.8h8.5c4.5,0,9.3-1.3,9.3-6.7c0-2.5-1.2-4.3-3.6-5.3
				c1.3-0.7,2-2.5,2-4C-36.8-108.9-41.9-109.8-45.3-109.8z M-45.3-106.3c1.7,0,4.5,0.4,4.5,2.6c0,1.9-2.1,2.7-4.4,2.7H-51v-5.4
				H-45.3z M-43.6-97.5c2.4,0,4.2,1,4.2,3.2c0,2.7-2.7,3.3-5.2,3.3H-51v-6.4H-43.6z"/>
		</g>
	</g>
</g>
<g>
	<g transform="translate(77.737018, 229.541733)">
		<g>
			<path d="M-39.5-110.1c-0.9,0-1.5,0.2-1.8,1l-9.9,19.3c-0.6,1.4,0.7,2.5,1.9,2.5c0.7,0,1.4-0.3,1.7-1l2.4-4.8h11.2l2.4,4.8
				c0.3,0.7,1.1,1,1.8,1c1.3,0,2.7-1,1.8-2.6l-9.8-19.2C-38.1-109.8-38.8-110.1-39.5-110.1z M-39.5-104.3l3.9,7.7h-7.8L-39.5-104.3z
				"/>
		</g>
	</g>
</g>
<g>
	<g transform="translate(96.867582, 229.541733)">
		<g>
			<path d="M-26.5-109.8h-16.9c-1.3,0-1.9,0.9-1.9,1.8c0,0.9,0.6,1.8,1.9,1.8h6.4v16.7c0,1.2,1,1.8,2,1.8c0.9,0,2-0.6,2-1.8l0-16.7
				h6.4c1.3,0,2-0.9,2-1.8C-24.4-108.9-25.2-109.8-26.5-109.8z"/>
		</g>
	</g>
</g>
<g>
	<g transform="translate(113.190992, 229.541733)">
		<g>
			<path d="M-34.9-109.8c-1,0-2,0.8-2,2v18.3c0,1.2,1,1.8,2,1.8c1,0,2-0.6,2-1.8v-11.6l5.1,7.9c0.4,0.7,1.2,1.1,1.9,1.1
				c0.7,0,1.4-0.3,1.8-1l5.2-8.1v11.7c0,1.2,1,1.8,2,1.8c1,0,2-0.6,2-1.8v-18.3c0-1.3-0.9-1.9-1.9-1.9c-0.7,0-1.4,0.3-1.8,1
				l-7.2,11.4l-7.2-11.3C-33.6-109.4-34.3-109.8-34.9-109.8z"/>
		</g>
	</g>
</g>
<g>
	<g transform="translate(135.05074, 229.541733)">
		<g>
			<path d="M-20.4-110.1c-0.9,0-1.5,0.2-1.8,1l-9.9,19.3c-0.6,1.4,0.7,2.5,1.9,2.5c0.7,0,1.4-0.3,1.7-1l2.4-4.8h11.2l2.4,4.8
				c0.3,0.7,1.1,1,1.8,1c1.3,0,2.7-1,1.8-2.6l-9.8-19.2C-19-109.8-19.7-110.1-20.4-110.1z M-20.4-104.3l3.9,7.7h-7.8L-20.4-104.3z"
				/>
		</g>
	</g>
</g>
<g>
	<g transform="translate(154.181301, 229.541733)">
		<g>
			<path d="M-8.6-108.1v11.2l0.1,2.3l-10.9-14.1c-0.6-0.7-1.1-1-2-1c-1.1,0-2.1,0.7-2.1,2.1v18.1c0,1.3,1,1.8,2.1,1.8
				c1,0,2-0.6,2-1.8v-10.9l-0.1-1.9l10.6,13.7c0.5,0.6,1.3,1,2.1,1c1.1,0,2.3-0.7,2.3-2.1v-18.3c0-1.2-1-1.7-2-1.7
				C-7.6-109.8-8.6-109.2-8.6-108.1z"/>
		</g>
	</g>
</g>
<g>
	<g transform="translate(173.155912, 229.541733)">
		<g>
			<path d="M-8.8-109.8h-7.1c-1.2,0-2.3,0.9-2.3,2v18c0,1.1,1,2,2.3,2h7.1c6.3,0,10.5-4.4,10.5-11C1.7-105.3-2.5-109.8-8.8-109.8z
				 M-8.8-91.1h-5.5v-15.3h5.5c3.9,0,6.5,3.1,6.5,7.7C-2.3-94.1-4.9-91.1-8.8-91.1z"/>
		</g>
	</g>
</g>
<g>
	<g transform="translate(191.246789, 229.541733)">
		<g>
			<path d="M-1.7-110.1c-0.9,0-1.5,0.2-1.8,1l-9.9,19.3c-0.6,1.4,0.7,2.5,1.9,2.5c0.7,0,1.4-0.3,1.7-1l2.4-4.8H3.9l2.4,4.8
				c0.3,0.7,1.1,1,1.8,1c1.3,0,2.7-1,1.8-2.6l-9.8-19.2C-0.2-109.8-0.9-110.1-1.7-110.1z M-1.7-104.3l3.9,7.7h-7.8L-1.7-104.3z"/>
		</g>
	</g>
</g>
<g>
	<g transform="translate(218.487216, 229.541733)">
		<g>
			<path d="M7.9-109.8H0.2c-1.1,0-2,0.8-2,1.8v18.4c0,1,0.9,1.8,2,1.8h8.5c4.5,0,9.3-1.3,9.3-6.7c0-2.5-1.2-4.3-3.6-5.3
				c1.3-0.7,2-2.5,2-4C16.4-108.9,11.3-109.8,7.9-109.8z M7.9-106.3c1.7,0,4.5,0.4,4.5,2.6c0,1.9-2.1,2.7-4.4,2.7H2.2v-5.4H7.9z
				 M9.6-97.5c2.4,0,4.2,1,4.2,3.2c0,2.7-2.7,3.3-5.2,3.3H2.2v-6.4H9.6z"/>
		</g>
	</g>
</g>
<g>
	<g transform="translate(237.357858, 229.541733)">
		<g>
			<path d="M21.2-107.9v10.5c0,3.8-2.6,6.4-6.4,6.4c-3.8,0-6.3-2.6-6.3-6.4V-108c0-1.2-1-1.8-2.1-1.8c-1,0-2,0.6-2,1.7v10.6
				c0,6,4.2,10.1,10.4,10.1c6.3,0,10.4-4.1,10.4-10.1V-108c0-1.2-1-1.8-2-1.8C22.2-109.8,21.2-109.2,21.2-107.9z"/>
		</g>
	</g>
</g>
<g>
	<g transform="translate(258.099942, 229.541733)">
		<g>
			<path d="M30.6-93v-5.4c0-1.1-0.5-1.9-2.1-1.9h-6.9c-1.3,0-1.9,0.9-1.9,1.8c0,0.8,0.6,1.7,1.9,1.7h5.1v3.5
				c-1.4,1.6-3.5,2.5-5.5,2.5c-4.3,0-7.1-3.3-7.2-8c0-4.7,2.9-7.9,7.2-7.9c1.9,0,3.8,0.7,5.3,2.2c2,2.1,4.9-0.3,2.9-2.4
				c-2-2.2-5.2-3.3-8.3-3.3c-6.7,0-11.2,4.5-11.2,11.2C9.8-92,14.3-87.3,21.1-87.3c3.3,0,6.9-1.8,9-4.2C30.5-92,30.6-92.6,30.6-93z"
				/>
		</g>
	</g>
</g>
<g>
	<g transform="translate(277.438441, 229.541733)">
		<g>
			<path d="M34.5-107.9v10.5c0,3.8-2.6,6.4-6.4,6.4c-3.8,0-6.3-2.6-6.3-6.4V-108c0-1.2-1-1.8-2.1-1.8c-1,0-2,0.6-2,1.7v10.6
				c0,6,4.2,10.1,10.4,10.1c6.3,0,10.4-4.1,10.4-10.1V-108c0-1.2-1-1.8-2-1.8C35.5-109.8,34.5-109.2,34.5-107.9z"/>
		</g>
	</g>
</g>
<g>
	<g transform="translate(298.180536, 229.541733)">
		<g>
			<path d="M39.4-108.1v11.2l0.1,2.3l-10.9-14.1c-0.6-0.7-1.1-1-2-1c-1.1,0-2.1,0.7-2.1,2.1v18.1c0,1.3,1,1.8,2.1,1.8
				c1,0,2-0.6,2-1.8v-10.9l-0.1-1.9l10.6,13.7c0.5,0.6,1.3,1,2.1,1c1.1,0,2.3-0.7,2.3-2.1v-18.3c0-1.2-1-1.7-2-1.7
				C40.4-109.8,39.4-109.2,39.4-108.1z"/>
		</g>
	</g>
</g>
</svg>
